HIERARCHY
ROOT hip
{
  OFFSET 0.00112043 5.09927 -9.65472
  CHANNELS 6 Xposition Yposition Zposition Zrotation Xrotation Yrotation
  JOINT abdomen
  {
    OFFSET 0 -1.186 -1.5018
    CHANNELS 3 Zrotation Xrotation Yrotation
    JOINT abdomen2
    {
      OFFSET 0 9.964 0.2134
      CHANNELS 3 Zrotation Xrotation Yrotation
      JOINT chest
      {
        OFFSET 0 13.134 -3.2573
        CHANNELS 3 Zrotation Xrotation Yrotation
        JOINT neck
        {
          OFFSET 0 20.686 -1.6905
          CHANNELS 3 Zrotation Xrotation Yrotation
          JOINT head
          {
            OFFSET 0 7.238 -0.1237
            CHANNELS 3 Zrotation Xrotation Yrotation
            End Site
            {
              OFFSET 0 0 0
            }
          }
        }
        JOINT lCollar
        {
          OFFSET 1.7069 20.075 5.0056
          CHANNELS 3 Zrotation Xrotation Yrotation
          JOINT lShldr
          {
            OFFSET 13.6458 -0.047 -4.849
            CHANNELS 3 Zrotation Xrotation Yrotation
            JOINT lForeArm
            {
              OFFSET 28.3255 -0.9759 2.2888
              CHANNELS 3 Zrotation Xrotation Yrotation
              JOINT lHand
              {
                OFFSET 22.1583 -0.53 10.8316
                CHANNELS 3 Zrotation Xrotation Yrotation
                JOINT lThumb1
                {
                  OFFSET 0.786 0.112 2.5817
                  CHANNELS 3 Zrotation Xrotation Yrotation
                  JOINT lThumb2
                  {
                    OFFSET 0.3601 -0.878 4.2331
                    CHANNELS 3 Zrotation Xrotation Yrotation
                    JOINT lThumb2_End
                    {
                      OFFSET 1.8127 -1.216 2.2227
                      CHANNELS 3 Zrotation Xrotation Yrotation
                      End Site
                      {
                        OFFSET 0.0181 -0.0122 0.0222
                      }
                    }
                  }
                }
                JOINT lCarpal1
                {
                  OFFSET 0.9571 1.114 1.7695
                  CHANNELS 3 Zrotation Xrotation Yrotation
                  JOINT lIndex1
                  {
                    OFFSET 4.1246 0.487 4.1451
                    CHANNELS 3 Zrotation Xrotation Yrotation
                    JOINT lIndex2
                    {
                      OFFSET 3.4052 -1.454 2.7682
                      CHANNELS 3 Zrotation Xrotation Yrotation
                      JOINT lIndex2_End
                      {
                        OFFSET 1.4531 -1.795 1.2713
                        CHANNELS 3 Zrotation Xrotation Yrotation
                        End Site
                        {
                          OFFSET 0.0145 -0.0179 0.0127
                        }
                      }
                    }
                  }
                  JOINT lMid1
                  {
                    OFFSET 5.6954 0.21 2.1184
                    CHANNELS 3 Zrotation Xrotation Yrotation
                    JOINT lMid2
                    {
                      OFFSET 3.9766 -1.54 2.3863
                      CHANNELS 3 Zrotation Xrotation Yrotation
                      JOINT lMid2_End
                      {
                        OFFSET 1.4042 -1.926 1.125
                        CHANNELS 3 Zrotation Xrotation Yrotation
                        End Site
                        {
                          OFFSET 0.014 -0.0193 0.0113
                        }
                      }
                    }
                  }
                }
                JOINT lCarpal2
                {
                  OFFSET 2.0956 0.66 -0.3894
                  CHANNELS 3 Zrotation Xrotation Yrotation
                  JOINT lRing1
                  {
                    OFFSET 5.0395 -0.09 2.4971
                    CHANNELS 3 Zrotation Xrotation Yrotation
                    JOINT lRing2
                    {
                      OFFSET 3.7921 -1.552 1.4806
                      CHANNELS 3 Zrotation Xrotation Yrotation
                      JOINT lRing2_End
                      {
                        OFFSET 1.4655 -1.808 0.9609
                        CHANNELS 3 Zrotation Xrotation Yrotation
                        End Site
                        {
                          OFFSET 0.0147 -0.0181 0.0096
                        }
                      }
                    }
                  }
                  JOINT lPinky1
                  {
                    OFFSET 4.9141 -1.269 0.3591
                    CHANNELS 3 Zrotation Xrotation Yrotation
                    JOINT lPinky2
                    {
                      OFFSET 3.1477 -1.685 0.8462
                      CHANNELS 3 Zrotation Xrotation Yrotation
                      JOINT lPinky2_End
                      {
                        OFFSET 0.8055 -1.585 0.7955
                        CHANNELS 3 Zrotation Xrotation Yrotation
                        End Site
                        {
                          OFFSET 0.0081 -0.0158 0.008
                        }
                      }
                    }
                  }
                }
              }
            }
          }
        }
        JOINT rCollar
        {
          OFFSET -1.7069 20.075 5.0056
          CHANNELS 3 Zrotation Xrotation Yrotation
          JOINT rShldr
          {
            OFFSET -13.6458 -0.047 -4.849
            CHANNELS 3 Zrotation Xrotation Yrotation
            JOINT rForeArm
            {
              OFFSET -28.3255 -0.9759 2.2888
              CHANNELS 3 Zrotation Xrotation Yrotation
              JOINT rHand
              {
                OFFSET -22.1583 -0.53 10.8316
                CHANNELS 3 Zrotation Xrotation Yrotation
                JOINT rThumb1
                {
                  OFFSET -0.786 0.112 2.5817
                  CHANNELS 3 Zrotation Xrotation Yrotation
                  JOINT rThumb2
                  {
                    OFFSET -0.3601 -0.878 4.2331
                    CHANNELS 3 Zrotation Xrotation Yrotation
                    JOINT rThumb2_End
                    {
                      OFFSET -1.8127 -1.216 2.2227
                      CHANNELS 3 Zrotation Xrotation Yrotation
                      End Site
                      {
                        OFFSET -0.0181 -0.0122 0.0222
                      }
                    }
                  }
                }
                JOINT rCarpal1
                {
                  OFFSET -0.9571 1.114 1.7695
                  CHANNELS 3 Zrotation Xrotation Yrotation
                  JOINT rIndex1
                  {
                    OFFSET -4.1246 0.487 4.1451
                    CHANNELS 3 Zrotation Xrotation Yrotation
                    JOINT rIndex2
                    {
                      OFFSET -3.4052 -1.454 2.7682
                      CHANNELS 3 Zrotation Xrotation Yrotation
                      JOINT rIndex2_End
                      {
                        OFFSET -1.4531 -1.795 1.2713
                        CHANNELS 3 Zrotation Xrotation Yrotation
                        End Site
                        {
                          OFFSET -0.0145 -0.018 0.0127
                        }
                      }
                    }
                  }
                  JOINT rMid1
                  {
                    OFFSET -5.6954 0.21 2.1184
                    CHANNELS 3 Zrotation Xrotation Yrotation
                    JOINT rMid2
                    {
                      OFFSET -3.9766 -1.54 2.3863
                      CHANNELS 3 Zrotation Xrotation Yrotation
                      JOINT rMid2_End
                      {
                        OFFSET -1.4042 -1.926 1.125
                        CHANNELS 3 Zrotation Xrotation Yrotation
                        End Site
                        {
                          OFFSET -0.014 -0.0193 0.0113
                        }
                      }
                    }
                  }
                }
                JOINT rCarpal2
                {
                  OFFSET -2.0956 0.66 -0.3894
                  CHANNELS 3 Zrotation Xrotation Yrotation
                  JOINT rRing1
                  {
                    OFFSET -5.0395 -0.09 2.4971
                    CHANNELS 3 Zrotation Xrotation Yrotation
                    JOINT rRing2
                    {
                      OFFSET -3.7921 -1.552 1.4806
                      CHANNELS 3 Zrotation Xrotation Yrotation
                      JOINT rRing2_End
                      {
                        OFFSET -1.4655 -1.808 0.9609
                        CHANNELS 3 Zrotation Xrotation Yrotation
                        End Site
                        {
                          OFFSET -0.0147 -0.0181 0.0096
                        }
                      }
                    }
                  }
                  JOINT rPinky1
                  {
                    OFFSET -4.9141 -1.269 0.3592
                    CHANNELS 3 Zrotation Xrotation Yrotation
                    JOINT rPinky2
                    {
                      OFFSET -3.1477 -1.685 0.8462
                      CHANNELS 3 Zrotation Xrotation Yrotation
                      JOINT rPinky2_End
                      {
                        OFFSET -0.8055 -1.585 0.7955
                        CHANNELS 3 Zrotation Xrotation Yrotation
                        End Site
                        {
                          OFFSET -0.0081 -0.0158 0.008
                        }
                      }
                    }
                  }
                }
              }
            }
          }
        }
      }
    }
  }
  JOINT lThigh
  {
    OFFSET 8.367 -8.2066 0.5982
    CHANNELS 3 Zrotation Xrotation Yrotation
    JOINT lShin
    {
      OFFSET 2.1923 -43.463 -0.4932
      CHANNELS 3 Zrotation Xrotation Yrotation
      JOINT lFoot
      {
        OFFSET 0.7333 -45.8593 -2.6451
        CHANNELS 3 Zrotation Xrotation Yrotation
        End Site
        {
          OFFSET 2.6618 -4.2699 12.3931
        }
      }
    }
  }
  JOINT rThigh
  {
    OFFSET -8.367 -8.2066 0.5982
    CHANNELS 3 Zrotation Xrotation Yrotation
    JOINT rShin
    {
      OFFSET -2.1923 -43.463 -0.4931
      CHANNELS 3 Zrotation Xrotation Yrotation
      JOINT rFoot
      {
        OFFSET -0.7333 -45.8593 -2.6451
        CHANNELS 3 Zrotation Xrotation Yrotation
        End Site
        {
          OFFSET -2.6618 -4.2699 12.3931
        }
      }
    }
  }
}
MOTION
Frames:	4
Frame Time:	0.0333333
-0.000545652 18.2631 56.3282 -0.00886773 -71.0095 179.991 0.0287841 -2.49676 0.0462659 0.0596733 -4.99349 0.0939226 0.0596733 -4.99348 0.0939226 4.0332e-006 -1.74352 1.07893e-006 -0.0512736 2.05664 -0.00917399 28.5332 29.7799 -30.0901 -128.02 -68.4498 -137.727 -33.7027 0.601113 -70.2454 5.32688 20.61 -34.5032 -1.59028e-015 -3.18055e-015 -9.54166e-015 6.36111e-015 -1.59028e-015 -6.36111e-015 -7.95139e-015 -1.59028e-014 3.18055e-015 -1.59028e-015 4.77083e-015 -9.54166e-015 3.18055e-015 -6.36111e-015 6.36111e-015 -6.36111e-015 -1.27222e-014 9.54166e-015 -0 -1.27222e-014 -0 3.18055e-015 -6.36111e-015 6.36111e-015 -6.36111e-015 -1.27222e-014 9.54166e-015 -0 -1.27222e-014 -0 -1.59028e-015 4.77083e-015 -9.54166e-015 3.18055e-015 -6.36111e-015 6.36111e-015 -6.36111e-015 -1.27222e-014 9.54166e-015 -0 -1.27222e-014 -0 3.18055e-015 -6.36111e-015 6.36111e-015 -6.36111e-015 -1.27222e-014 9.54166e-015 -0 -1.27222e-014 -0 -28.3213 29.8332 29.9796 127.634 -68.3215 138.115 33.0787 -1.40049 69.2481 -5.18807 19.6926 34.9608 7.50316e-007 -1.11218e-006 2.9332e-006 -9.74444e-007 4.02135e-006 -1.32642e-006 2.78546e-006 3.40325e-008 1.68828e-006 -1.03368e-014 7.95139e-015 3.18055e-015 7.50316e-007 -1.11218e-006 2.9332e-006 -9.74444e-007 4.02135e-006 -1.32642e-006 2.78546e-006 3.40325e-008 1.68828e-006 7.50316e-007 -1.11218e-006 2.9332e-006 -9.74444e-007 4.02135e-006 -1.32642e-006 2.78546e-006 3.40325e-008 1.68828e-006 -1.03368e-014 7.95139e-015 3.18055e-015 7.50316e-007 -1.11218e-006 2.9332e-006 -9.74444e-007 4.02135e-006 -1.32642e-006 2.78546e-006 3.40325e-008 1.68828e-006 7.50316e-007 -1.11218e-006 2.9332e-006 -9.74444e-007 4.02135e-006 -1.32642e-006 2.78546e-006 3.40325e-008 1.68828e-006 105.124 -35.5074 94.7017 -177.057 51.0373 -174.537 10.6207 26.1561 3.60442 -105.122 -35.504 -94.7217 177.108 51.0358 174.481 -10.6421 26.1527 -3.5852 
-0.000568294 18.2367 56.436 -0.00886773 -71.0095 179.991 0.0292557 -2.47931 0.0463727 0.0606073 -4.95858 0.0941464 0.0606073 -4.95855 0.0941464 1.49613e-006 -2.23454 1.08191e-006 -0.0513389 1.65683 -0.00912485 28.821 29.2244 -29.8307 -128.555 -68.5662 -138.133 -33.7049 0.319361 -70.0019 5.02427 20.2717 -34.2828 1.59028e-015 3.18055e-015 -6.36111e-015 3.18055e-015 1.59028e-015 -0 -1.59028e-015 1.59028e-015 -6.36111e-015 -1.59028e-015 0 -3.18055e-015 1.59028e-015 -7.95139e-015 -0 -4.77083e-015 -3.18055e-015 -3.18055e-015 -4.77083e-015 7.95139e-015 -3.18055e-015 1.59028e-015 -7.95139e-015 -0 -4.77083e-015 -3.18055e-015 -3.18055e-015 -4.77083e-015 7.95139e-015 -3.18055e-015 -1.59028e-015 0 -3.18055e-015 1.59028e-015 -7.95139e-015 -0 -4.77083e-015 -3.18055e-015 -3.18055e-015 -4.77083e-015 7.95139e-015 -3.18055e-015 1.59028e-015 -7.95139e-015 -0 -4.77083e-015 -3.18055e-015 -3.18055e-015 -4.77083e-015 7.95139e-015 -3.18055e-015 -28.618 29.2764 29.7231 128.158 -68.4366 138.509 33.0708 -1.67922 69.0031 -4.99523 19.3348 34.6965 2.3707e-006 2.59048e-006 -1.89463e-007 1.68615e-006 -4.39913e-006 -1.67102e-006 2.3707e-006 2.59048e-006 -1.89463e-007 7.95139e-016 -2.38542e-015 -6.36111e-015 2.3707e-006 2.59048e-006 -1.89463e-007 1.68615e-006 -4.39913e-006 -1.67102e-006 2.3707e-006 2.59048e-006 -1.89463e-007 2.3707e-006 2.59048e-006 -1.89463e-007 1.68615e-006 -4.39913e-006 -1.67102e-006 2.3707e-006 2.59048e-006 -1.89463e-007 7.95139e-016 -2.38542e-015 -6.36111e-015 2.3707e-006 2.59048e-006 -1.89463e-007 1.68615e-006 -4.39913e-006 -1.67102e-006 2.3707e-006 2.59048e-006 -1.89463e-007 2.3707e-006 2.59048e-006 -1.89463e-007 1.68615e-006 -4.39913e-006 -1.67102e-006 2.3707e-006 2.59048e-006 -1.89463e-007 105.32 -35.4734 94.8233 -177.058 51.0469 -174.527 10.6273 26.1422 3.6098 -105.318 -35.4695 -94.8428 177.109 51.0454 174.471 -10.6487 26.1389 -3.59058 
-0.000596432 18.2103 56.5439 -0.00886773 -71.0095 179.991 0.0297214 -2.46181 0.046475 0.061529 -4.92363 0.0943605 0.061529 -4.9236 0.0943604 7.56604e-006 -2.72438 1.39046e-006 -0.0514036 1.25697 -0.0090805 29.1103 28.6699 -29.5694 -129.096 -68.6812 -138.545 -33.706 0.0370746 -69.7588 4.72364 19.9323 -34.0647 4.77083e-015 7.95139e-015 -3.18055e-015 1.59028e-015 -1.59028e-015 -3.18055e-015 3.18055e-015 0 3.18055e-015 -1.59028e-015 6.36111e-015 -3.18055e-015 -9.54166e-015 1.74931e-014 9.54166e-015 -1.59028e-015 3.18055e-015 -3.18055e-015 6.36111e-015 3.18055e-015 -3.18055e-015 -9.54166e-015 1.74931e-014 9.54166e-015 -1.59028e-015 3.18055e-015 -3.18055e-015 6.36111e-015 3.18055e-015 -3.18055e-015 -1.59028e-015 6.36111e-015 -3.18055e-015 -9.54166e-015 1.74931e-014 9.54166e-015 -1.59028e-015 3.18055e-015 -3.18055e-015 6.36111e-015 3.18055e-015 -3.18055e-015 -9.54166e-015 1.74931e-014 9.54166e-015 -1.59028e-015 3.18055e-015 -3.18055e-015 6.36111e-015 3.18055e-015 -3.18055e-015 -28.9161 28.7206 29.4646 128.686 -68.5503 138.908 33.0617 -1.9585 68.7585 -4.80453 18.9761 34.434 3.18055e-015 -3.18055e-015 -6.36111e-015 2.18526e-006 -2.59128e-006 2.87005e-006 5.56597e-015 3.97569e-015 -3.18055e-015 -8.82781e-032 -1.59028e-015 -3.18055e-015 -2.38542e-015 7.95139e-016 6.36111e-015 2.18526e-006 -2.59128e-006 2.87005e-006 3.18055e-015 1.59028e-015 -0 -2.38542e-015 7.95139e-016 6.36111e-015 2.18526e-006 -2.59128e-006 2.87005e-006 3.18055e-015 1.59028e-015 -0 -8.82781e-032 -1.59028e-015 -3.18055e-015 -2.38542e-015 7.95139e-016 6.36111e-015 2.18526e-006 -2.59128e-006 2.87005e-006 3.18055e-015 1.59028e-015 -0 -2.38542e-015 7.95139e-016 6.36111e-015 2.18526e-006 -2.59128e-006 2.87005e-006 3.18055e-015 1.59028e-015 -0 105.515 -35.4392 94.9447 -177.058 51.0565 -174.518 10.6338 26.1283 3.61523 -105.513 -35.4346 -94.9637 177.109 51.0551 174.462 -10.6553 26.125 -3.59598 
-0.000617159 18.1839 56.6519 -0.00886773 -71.0095 179.991 0.0301819 -2.44432 0.0465735 0.06244 -4.88862 0.0945664 0.06244 -4.88861 0.0945664 3.93668e-006 -3.2156 1.63463e-006 -0.0514675 0.857052 -0.00904042 29.401 28.1163 -29.3063 -129.641 -68.7948 -138.962 -33.7058 -0.244422 -69.515 4.425 19.5918 -33.8489 6.36111e-015 4.77083e-015 -6.36111e-015 2.96379e-006 -1.09602e-006 -7.48264e-007 1.59028e-015 3.18055e-015 -0 3.18055e-015 1.59028e-015 -3.18055e-015 -9.54166e-015 7.95139e-015 1.59028e-014 2.96379e-006 -1.09602e-006 -7.48264e-007 3.18055e-015 -6.36111e-015 9.54166e-015 -9.54166e-015 7.95139e-015 1.59028e-014 2.96379e-006 -1.09602e-006 -7.48264e-007 3.18055e-015 -6.36111e-015 9.54166e-015 3.18055e-015 1.59028e-015 -3.18055e-015 -9.54166e-015 7.95139e-015 1.59028e-014 2.96379e-006 -1.09602e-006 -7.48264e-007 3.18055e-015 -6.36111e-015 9.54166e-015 -9.54166e-015 7.95139e-015 1.59028e-014 2.96379e-006 -1.09602e-006 -7.48264e-007 3.18055e-015 -6.36111e-015 9.54166e-015 -29.2156 28.1657 29.2041 129.22 -68.6627 139.313 33.0514 -2.23693 68.5132 -4.61588 18.6165 34.1732 5.56597e-015 -1.59028e-015 -3.18055e-015 -7.95139e-016 7.95139e-016 3.18055e-015 -3.89112e-007 1.81344e-006 4.05e-006 5.56597e-015 -7.95139e-016 -3.18055e-015 -2.38542e-015 -2.38542e-015 1.27222e-014 1.59028e-015 -7.95139e-016 -3.18055e-015 -3.89112e-007 1.81344e-006 4.05e-006 -2.38542e-015 -2.38542e-015 1.27222e-014 1.59028e-015 -7.95139e-016 -3.18055e-015 -3.89112e-007 1.81344e-006 4.05e-006 5.56597e-015 -7.95139e-016 -3.18055e-015 -2.38542e-015 -2.38542e-015 1.27222e-014 1.59028e-015 -7.95139e-016 -3.18055e-015 -3.89112e-007 1.81344e-006 4.05e-006 -2.38542e-015 -2.38542e-015 1.27222e-014 1.59028e-015 -7.95139e-016 -3.18055e-015 -3.89112e-007 1.81344e-006 4.05e-006 105.711 -35.4048 95.066 -177.059 51.066 -174.508 10.6404 26.1143 3.62068 -105.709 -35.3996 -95.0845 177.11 51.0646 174.452 -10.6619 26.111 -3.60144 
